<svg width="48" height="48" viewBox="0 0 48 48" fill="none" xmlns="http://www.w3.org/2000/svg">
<g clip-path="url(#clip0_112_398)">
<path d="M23.9871 0.0127069C10.7401 0.0155177 0.00357906 10.7567 0.00638989 24.0037C0.00732684 28.5907 1.32364 33.0812 3.79905 36.9429L0.0672913 46.6252C-0.131435 47.1401 0.124914 47.7187 0.639859 47.9174C0.755009 47.9618 0.877281 47.9846 1.00068 47.9844C1.11517 47.985 1.22882 47.9654 1.33648 47.9264L11.3306 44.3585C22.5751 51.3617 37.3677 47.9234 44.3709 36.6789C51.374 25.4343 47.9357 10.6417 36.6912 3.63859C32.8795 1.26456 28.4778 0.00830321 23.9871 0.0127069Z" fill="#55CD6C"/>
<path d="M35.422 28.098C35.422 28.098 32.9735 26.8987 31.4404 26.0992C29.7054 25.2058 27.6666 26.8788 26.7072 27.8303C25.214 27.2567 23.8502 26.3909 22.6956 25.2837C21.5882 24.1293 20.7225 22.7655 20.1491 21.2721C21.1005 20.3107 22.7695 18.2739 21.8801 16.5389C21.0905 15.0038 19.8813 12.5573 19.8813 12.5553C19.7116 12.2186 19.3669 12.006 18.9898 12.0056H16.991C14.0801 12.5084 11.9636 15.0483 11.994 18.0021C11.994 21.1402 15.7497 27.1687 18.2823 29.7031C20.8148 32.2375 26.8433 35.9914 29.9833 35.9914C32.9371 36.0218 35.477 33.9052 35.9798 30.9944V28.9956C35.9801 28.6145 35.7638 28.2664 35.422 28.098Z" fill="#FAFAFA"/>
</g>
<defs>
<clipPath id="clip0_112_398">
<rect width="48" height="48" fill="white"/>
</clipPath>
</defs>
</svg>
